<svg width="100" height="100" viewBox="0 0 100 100" xmlns="http://www.w3.org/2000/svg">
  <!-- 背景圆形 -->
  <circle cx="50" cy="50" r="45" fill="url(#bgGradient)"/>
  
  <!-- 渐变定义 -->
  <defs>
    <linearGradient id="bgGradient" x1="0%" y1="0%" x2="100%" y2="100%">
      <stop offset="0%" stop-color="#6B46C1"/>
      <stop offset="100%" stop-color="#F97316"/>
    </linearGradient>
    <linearGradient id="noteGradient" x1="0%" y1="0%" x2="100%" y2="100%">
      <stop offset="0%" stop-color="#FFFFFF"/>
      <stop offset="100%" stop-color="#E5E7EB"/>
    </linearGradient>
  </defs>
  
  <!-- 音乐符号 -->
  <path d="M30,60 C30,50 40,45 45,40 C40,35 30,30 30,20 L35,20 C35,35 45,40 50,45 C55,40 65,35 65,20 L70,20 C70,30 60,35 55,40 C60,45 70,50 70,60 L65,60 C65,50 55,45 50,40 C45,45 35,50 35,60 Z" fill="url(#noteGradient)"/>
  
  <!-- 装饰线条 -->
  <line x1="25" y1="65" x2="75" y2="65" stroke="white" stroke-width="2" stroke-opacity="0.8"/>
  <line x1="30" y1="70" x2="70" y2="70" stroke="white" stroke-width="2" stroke-opacity="0.6"/>
  <line x1="35" y1="75" x2="65" y2="75" stroke="white" stroke-width="2" stroke-opacity="0.4"/>
</svg>